<?xml version="1.0" encoding="UTF-8"?>
<svg width="20px" height="20px" viewBox="0 0 20 20" version="1.1" xmlns="http://www.w3.org/2000/svg" xmlns:xlink="http://www.w3.org/1999/xlink">
    <title>Icons/Interface Icons/Bonus</title>
    <g id="Bets-History" stroke="none" stroke-width="1" fill="none" fill-rule="evenodd">
        <g id="Bets-History---List-View---1920-x-1024" transform="translate(-469.000000, -562.000000)" fill="#FFD206">
            <g id="Icons/Interface-Icons/Bonus" transform="translate(467.000000, 560.000000)">
                <path d="M12,2 C17.5228475,2 22,6.4771525 22,12 C22,17.5228475 17.5228475,22 12,22 C6.4771525,22 2,17.5228475 2,12 C2,6.4771525 6.4771525,2 12,2 Z M12,4 C7.581722,4 4,7.581722 4,12 C4,16.418278 7.581722,20 12,20 C16.418278,20 20,16.418278 20,12 C20,7.581722 16.418278,4 12,4 Z M11.01,13.199 L11.0106229,16 L7.99977928,16 L7.99961775,13.1990586 L7.99961775,13.1990586 L11.01,13.199 Z M16.012,13.199 L16.0120082,15.9961494 L13.0009299,15.9961494 L13,13.199 L16.012,13.199 Z M14.2206803,6 C14.7325218,6.49527287 15.1994205,6.94701174 15.690082,7.42176338 C15.0878851,8.00029898 14.4579336,8.60556202 13.796893,9.24067824 L17,9.24067824 L17,11.1578957 L16.0120082,11.1578957 L16.012,11.999 L13,11.999 L13.0009299,9.26237729 L11.0106229,9.26237729 L11.01,11.999 L8.00264485,11.9992128 C8.0034798,11.8092386 8.00451395,11.6192651 8.00579045,11.4292924 C8.00719931,11.2211355 8.00224164,11.1651115 8.0042572,11.1650985 L7.88348446,11.1657018 C7.80903656,11.1660664 7.70696951,11.1665538 7.59699678,11.1670416 L7.37235144,11.1679814 L7.31700304,11.1681911 L7.31700304,11.1681911 L7,11.1689944 L7,9.25010079 L10.1800016,9.25010079 C9.52905789,8.63120224 8.89699301,8.03024277 8.27014093,7.43422108 C8.7901539,6.94361418 9.2618427,6.49862512 9.737899,6.0495137 C10.4626674,6.75004417 11.2131241,7.47535414 11.9528264,8.19033554 C12.7272808,7.44237521 13.482152,6.71330528 14.2206803,6 Z"></path>
            </g>
        </g>
    </g>
</svg>