<?xml version="1.0" encoding="UTF-8"?>
<svg xmlns="http://www.w3.org/2000/svg" xmlns:xlink="http://www.w3.org/1999/xlink" width="14pt" height="14pt" viewBox="0 0 14 14" version="1.1">
<g id="surface43579345">
<path style=" stroke:none;fill-rule:nonzero;fill:rgb(100%,100%,100%);fill-opacity:1;" d="M 5.980469 1.75 C 3.648438 1.75 1.75 3.648438 1.75 5.980469 C 1.75 8.308594 3.648438 10.207031 5.980469 10.207031 C 6.933594 10.207031 7.8125 9.886719 8.523438 9.347656 L 11.253906 12.078125 C 11.402344 12.230469 11.617188 12.292969 11.820312 12.238281 C 12.027344 12.1875 12.1875 12.027344 12.238281 11.820312 C 12.292969 11.617188 12.230469 11.402344 12.078125 11.253906 L 9.347656 8.523438 C 9.886719 7.8125 10.207031 6.933594 10.207031 5.980469 C 10.207031 3.648438 8.308594 1.75 5.980469 1.75 Z M 5.980469 2.917969 C 7.675781 2.917969 9.042969 4.28125 9.042969 5.980469 C 9.042969 6.792969 8.726562 7.53125 8.210938 8.078125 C 8.160156 8.113281 8.117188 8.160156 8.078125 8.207031 C 7.53125 8.722656 6.796875 9.042969 5.980469 9.042969 C 4.28125 9.042969 2.917969 7.675781 2.917969 5.980469 C 2.917969 4.28125 4.28125 2.917969 5.980469 2.917969 Z M 5.980469 2.917969 "/>
</g>
</svg>
