<?xml version="1.0" encoding="UTF-8"?>
<svg width="20px" height="20px" viewBox="0 0 20 20" version="1.1" xmlns="http://www.w3.org/2000/svg" xmlns:xlink="http://www.w3.org/1999/xlink">
    <title>Icons/Interface Icons/Settings</title>
    <g id="Bets-History" stroke="none" stroke-width="1" fill="none" fill-rule="evenodd">
        <g id="Bets-History---List-View---1920-x-1024" transform="translate(-1875.000000, -20.000000)" fill="#62676E">
            <g id="Group" transform="translate(1714.000000, 0.000000)">
                <g transform="translate(159.000000, 18.000000)" id="Icons/Interface-Icons/Settings">
                    <path d="M22,13.4278571 L22,10.5714286 L18.9992857,10.5714286 C18.8207143,9.695 18.4785714,8.88 18.0114286,8.15285714 L20.1528571,6.01071429 L18.1314286,3.99071429 L16.0221429,6.09928571 C15.2521429,5.57285714 14.3742857,5.19285714 13.4285714,5.00071429 L13.4285714,2 L10.5714286,2 L10.5714286,5.00071429 C9.65928571,5.18642857 8.81214286,5.54714286 8.06285714,6.04285714 L6.01,3.99071429 L3.98928571,6.01 L6.04214286,8.06428571 C5.54642857,8.81357143 5.18571429,9.66 5.00071429,10.5714286 L2,10.5714286 L2,13.4285714 L5.00142857,13.4285714 C5.19357143,14.3742857 5.57357143,15.2521429 6.1,16.0221429 L3.99,18.1314286 L6.01142857,20.1528571 L8.15285714,18.0107143 C8.88071429,18.4778571 9.69571429,18.8207143 10.5721429,18.9992857 L10.5721429,22 L13.4285714,22 L13.4285714,18.9992857 C14.34,18.8135714 15.1878571,18.4535714 15.9371429,17.9571429 L18.1321429,20.1528571 L20.1535714,18.1314286 L17.9578571,15.9364286 C18.4535714,15.1864286 18.8142857,14.34 18.9992857,13.4278571 L22,13.4278571 Z M12.0000596,16.6424569 C9.43623143,16.6378137 7.36148851,14.5623029 7.35607143,12.0000298 C7.36226238,9.43620898 9.43623143,7.36147201 12.0000596,7.35682881 C14.5631139,7.36147201 16.6378568,9.43543512 16.6425,12.0000298 C16.6378568,14.5630767 14.5631139,16.6378137 12.0000596,16.6424569 Z" id="Shape"></path>
                </g>
            </g>
        </g>
    </g>
</svg>