<?xml version="1.0" encoding="UTF-8"?>
<svg width="18px" height="18px" viewBox="0 0 18 18" version="1.1" xmlns="http://www.w3.org/2000/svg" xmlns:xlink="http://www.w3.org/1999/xlink">
    <title>Icons/Sports/J</title>
    <defs>
        <path d="M12,3 C16.9705627,3 21,7.02943725 21,12 C21,16.9705627 16.9705627,21 12,21 C7.02943725,21 3,16.9705627 3,12 C3,7.02943725 7.02943725,3 12,3 Z M12.9224198,13.6489988 L12.8505683,13.6522145 C12.5515863,13.6643956 12.2451756,13.6706074 11.9312594,13.6706074 C11.6639133,13.6706074 11.4020108,13.6661019 11.1455048,13.6572408 C11.2837901,15.0139244 11.5825627,16.2060457 11.9985281,17.2369162 C12.1990852,17.7339491 12.4118947,18.1540166 12.6218512,18.4978583 C12.7409124,18.6928426 12.8267803,18.8128444 12.8641671,18.8583587 C12.9320732,18.9410271 12.9821883,19.0324707 13.0149674,19.1280479 C14.092249,18.9772385 15.0941501,18.586239 15.9639914,18.0115082 C15.6276104,17.8082044 15.2665808,17.5494923 14.905235,17.2300673 C13.853627,16.3004596 13.1357904,15.1085888 12.9224198,13.6489988 Z M8.42655691,13.3709535 L8.42230148,13.4687775 C8.35246197,14.4429344 8.16511774,15.3875209 7.89326971,16.282354 C7.72987613,16.8201912 7.56464291,17.2535131 7.42822445,17.5619944 C8.42127139,18.3796447 9.63688011,18.9359971 10.970401,19.1269387 C10.7821633,18.7887748 10.5825417,18.3759119 10.385568,17.8877598 C9.87687427,16.6270839 9.52508119,15.1713961 9.38717261,13.5206712 C9.05647643,13.4782613 8.73614893,13.4284994 8.42655691,13.3709535 Z M19.199934,12.031171 L19.125038,12.0767557 C18.8307846,12.2488958 18.4779877,12.4271519 18.0635073,12.6020702 C17.0956959,13.0105044 15.9644681,13.3176251 14.6609569,13.4954373 C14.8271787,14.4759652 15.3216627,15.2767066 16.0572041,15.9269156 C16.3871721,16.218603 16.7432399,16.4588905 17.0982475,16.6489627 C17.2080962,16.707776 17.3029095,16.7542433 17.3785073,16.7888117 C18.504758,15.5226422 19.1921946,13.8571242 19.199934,12.031171 Z M4.80072765,12.1133302 L4.8,12 C4.8,13.5423347 5.28495403,14.9714024 6.1106969,16.1430378 C6.15060011,16.0271802 6.19030508,15.9043104 6.22905188,15.7767688 C6.50279191,14.8757079 6.67742414,13.9174552 6.70835691,12.9386136 C6.38889037,12.8359607 6.08672962,12.7234925 5.79901157,12.6020702 C5.41381511,12.4395102 5.08189393,12.2740675 4.80072765,12.1133302 Z M12.9554378,4.86283588 L12.9329366,4.90798725 C12.9124878,4.9411291 12.8895725,4.97328575 12.8641671,5.00421414 C12.8267803,5.04972847 12.7409124,5.16973024 12.6218512,5.36471453 C12.4118947,5.70855622 12.1990852,6.12862379 11.9985281,6.62565662 C11.4162776,8.0686251 11.0636452,9.82753522 11.0616079,11.9131076 C11.3431302,11.9252713 11.6330852,11.9312864 11.9312594,11.9312864 C12.2501205,11.9312864 12.5595821,11.9244077 12.8597889,11.9109933 C12.9796795,10.1637143 13.6713371,8.62238309 14.7583615,7.30361109 C15.1948485,6.77406756 15.6325877,6.34891212 16.0221092,6.02691991 C15.123378,5.42089147 14.0804095,5.01199129 12.9554378,4.86283588 Z M10.8885566,4.88574222 L10.8088627,4.89806895 C9.54762559,5.10804156 8.39727154,5.64585511 7.44834353,6.42096662 L7.4169083,6.35097545 C7.55944783,6.66197078 7.75754634,7.2262514 7.95045724,8.03296968 C8.20161745,9.08327602 8.37187562,10.273937 8.43027421,11.598893 C8.71497849,11.6591059 9.01294836,11.7118706 9.32330831,11.7565465 L9.32227803,11.9312864 C9.32227803,9.61129174 9.71937249,7.62581944 10.385568,5.9748131 C10.5542824,5.55669496 10.7249393,5.19381263 10.8885566,4.88574222 Z M17.3606443,7.19329198 C17.2977533,7.24066101 17.2333055,7.29148592 17.162906,7.34915811 C16.8015776,7.64516303 16.4386398,7.99968268 16.1005079,8.40990235 C15.2955767,9.38644052 14.7695539,10.4951496 14.6216311,11.7443864 C15.6890783,11.5846577 16.6073673,11.328724 17.3872374,10.9996045 C17.8511435,10.8038276 18.2265855,10.5977377 18.5199646,10.3963133 C18.6801255,10.2863521 18.7699841,10.2111976 18.7953967,10.185785 C18.8396185,10.1415632 18.8874179,10.1030994 18.9378633,10.0703937 C18.6384935,8.98823423 18.0908894,8.00714717 17.3606443,7.19329198 Z M6.10619666,7.85967648 L5.98252091,8.04506025 C5.56061514,8.68569694 5.23826518,9.39771254 5.03749082,10.1590873 C5.04852263,10.1675914 5.0579002,10.176563 5.06712219,10.185785 C5.09253479,10.2111976 5.1823934,10.2863521 5.34255429,10.3963133 C5.6359334,10.5977377 6.01137537,10.8038276 6.4752815,10.9996045 L6.65696314,11.0709073 C6.58485581,10.1008677 6.44645697,9.22210937 6.2588304,8.43748914 C6.20919398,8.22991867 6.15799412,8.03725584 6.10619666,7.85967648 Z" id="path-1"></path>
    </defs>
    <g id="Bets-History" stroke="none" stroke-width="1" fill="none" fill-rule="evenodd">
        <g id="Bets-History---List-View---1920-x-1024" transform="translate(-1368.000000, -417.000000)">
            <g id="Icons/Sports/J" transform="translate(1365.000000, 414.000000)">
                <mask id="mask-2" fill="white">
                    <use xlink:href="#path-1"></use>
                </mask>
                <use id="Combined-Shape" fill="#62676E" xlink:href="#path-1"></use>
            </g>
        </g>
    </g>
</svg>