<?xml version="1.0" encoding="UTF-8"?>
<svg width="18px" height="18px" viewBox="0 0 18 18" version="1.1" xmlns="http://www.w3.org/2000/svg" xmlns:xlink="http://www.w3.org/1999/xlink">
    <title>Icons/Sports/L</title>
    <defs>
        <path d="M12,3 C16.9705627,3 21,7.02943725 21,12 C21,16.9705627 16.9705627,21 12,21 C7.02943725,21 3,16.9705627 3,12 C3,7.02943725 7.02943725,3 12,3 Z M6.23489799,7.68609713 L6.90618557,7.5742268 L7.07319588,10.3298969 L5.23608247,12.4175258 L4.80035306,11.927948 C4.80011787,11.9519374 4.8,11.9759549 4.8,12 C4.8,13.5619539 5.29737016,15.0077408 6.14237347,16.1876237 L6.23814433,15.4237113 L8.99381443,16.0917526 L10.4134021,18.5134021 L9.71628274,18.830284 C10.4338579,19.0700993 11.201759,19.2 12,19.2 C12.798241,19.2 13.5661421,19.0700993 14.2837173,18.830284 L13.5865979,18.5134021 L15.0061856,16.0917526 L17.7618557,15.4237113 L17.8576265,16.1876237 C18.7026298,15.0077408 19.2,13.5619539 19.2,12 L19.199,11.927 L18.7639175,12.4175258 L16.9268041,10.3298969 L17.0938144,7.5742268 L17.765102,7.68609713 C16.9035213,6.53652696 15.7061446,5.65313294 14.3184953,5.18143828 L14.5886598,5.65360825 L12,6.73917526 L9.41134021,5.65360825 L9.68150467,5.18143828 C8.29385535,5.65313294 7.09647872,6.53652696 6.23489799,7.68609713 Z M12,8.74329897 L15.3402062,11.1649485 L14.0041237,15.0896907 L9.99587629,15.0896907 L8.65979381,11.1649485 L12,8.74329897 Z" id="path-1"></path>
    </defs>
    <g id="Bets-History" stroke="none" stroke-width="1" fill="none" fill-rule="evenodd">
        <g id="Bets-History---List-View---1920-x-1024" transform="translate(-1368.000000, -136.000000)">
            <g id="Icons/Sports/L" transform="translate(1365.000000, 133.000000)">
                <mask id="mask-2" fill="white">
                    <use xlink:href="#path-1"></use>
                </mask>
                <use id="Combined-Shape" fill="#62676E" xlink:href="#path-1"></use>
            </g>
        </g>
    </g>
</svg>